<svg width="140" height="140" viewBox="0 0 140 140" xmlns="http://www.w3.org/2000/svg" xmlns:xlink="http://www.w3.org/1999/xlink"><title>Group 38</title><defs><linearGradient x1="84.21%" y1="6.175%" x2="50%" y2="100%" id="a"><stop stop-color="#6550C1" offset="0%"/><stop stop-color="#C73582" offset="51.357%"/><stop stop-color="#F57A36" offset="100%"/></linearGradient><path id="b" d="M0 0h140v140H0z"/></defs><g fill="none" fill-rule="evenodd"><use fill="url(#a)" xlink:href="#b"/><g fill="#FFF"><path d="M70 39.857c9.818 0 10.98.037 14.857.214 3.585.164 5.532.763 6.828 1.266 1.716.667 2.94 1.464 4.227 2.75 1.287 1.287 2.084 2.512 2.75 4.228.504 1.296 1.103 3.243 1.267 6.827.177 3.878.214 5.04.214 14.858 0 9.818-.037 10.98-.214 14.857-.164 3.585-.763 5.532-1.266 6.828-.667 1.716-1.464 2.94-2.75 4.227-1.287 1.287-2.512 2.084-4.228 2.75-1.296.504-3.243 1.103-6.828 1.267-3.876.177-5.039.214-14.857.214s-10.98-.037-14.857-.214c-3.585-.164-5.532-.763-6.828-1.266-1.716-.667-2.94-1.464-4.227-2.75-1.287-1.287-2.084-2.512-2.75-4.228-.504-1.296-1.103-3.243-1.267-6.827-.177-3.878-.214-5.04-.214-14.858 0-9.818.037-10.98.214-14.857.164-3.585.763-5.532 1.266-6.828.667-1.716 1.464-2.94 2.75-4.227 1.287-1.287 2.512-2.084 4.228-2.75 1.296-.504 3.243-1.103 6.827-1.267 3.878-.177 5.04-.214 14.858-.214m0-6.625c-9.986 0-11.238.042-15.16.221-3.913.179-6.586.8-8.925 1.71-2.417.939-4.468 2.196-6.512 4.24-2.044 2.044-3.301 4.095-4.24 6.512-.91 2.34-1.531 5.012-1.71 8.926-.179 3.921-.221 5.173-.221 15.159s.042 11.238.221 15.16c.179 3.913.8 6.586 1.71 8.925.939 2.417 2.196 4.468 4.24 6.512 2.044 2.044 4.095 3.301 6.512 4.24 2.34.91 5.012 1.531 8.926 1.71 3.921.179 5.173.221 15.159.221s11.238-.042 15.16-.221c3.913-.179 6.586-.8 8.925-1.71 2.417-.939 4.468-2.196 6.512-4.24 2.044-2.044 3.301-4.095 4.24-6.512.91-2.34 1.531-5.012 1.71-8.926.179-3.921.221-5.173.221-15.159s-.042-11.238-.221-15.16c-.179-3.913-.8-6.586-1.71-8.925-.939-2.417-2.196-4.468-4.24-6.512-2.044-2.044-4.095-3.301-6.512-4.24-2.34-.91-5.012-1.531-8.926-1.71-3.921-.179-5.173-.221-15.159-.221"/><path d="M70 51.119c-10.428 0-18.881 8.453-18.881 18.881S59.572 88.881 70 88.881 88.881 80.428 88.881 70 80.428 51.119 70 51.119zm0 31.137c-6.769 0-12.256-5.487-12.256-12.256S63.23 57.744 70 57.744 82.256 63.23 82.256 70 76.77 82.256 70 82.256zm24.039-31.883a4.412 4.412 0 1 1-8.824 0 4.412 4.412 0 0 1 8.824 0"/></g></g></svg>